<svg width="38" height="38" viewBox="0 0 38 38" fill="none" xmlns="http://www.w3.org/2000/svg">
<g filter="url(#filter0_d_21_1585)">
<path fill-rule="evenodd" clip-rule="evenodd" d="M4.00684 15.3119C4.17043 18.6187 7.0241 21.1548 10.3301 21.1548L16.3375 21.1496V19.2022C16.3375 18.3554 15.6507 17.6625 14.7987 17.6625L10.1498 17.6678C8.56729 17.6678 7.30142 16.2768 7.50875 14.6505C7.68284 13.3085 8.8901 12.3384 10.2426 12.3384H11.8802V8.85132H10.1507C6.6593 8.85132 3.83274 11.7811 4.00771 15.3119H4.00684Z" fill="#848688"/>
<path fill-rule="evenodd" clip-rule="evenodd" d="M33.9923 14.6897C33.8296 11.389 30.9751 8.85205 27.6691 8.85205H21.6617V10.7994C21.6617 11.6515 22.3545 12.3391 23.2014 12.3391H27.8493C29.4319 12.3391 30.6977 13.7301 30.4904 15.3502C30.3163 16.6931 29.1091 17.6633 27.7557 17.6633H26.1259V21.1556H27.8493C31.3416 21.1556 34.1673 18.2258 33.9923 14.6897Z" fill="#848688"/>
<path fill-rule="evenodd" clip-rule="evenodd" d="M18.6881 0.0076354C15.3821 0.172102 12.8452 3.0249 12.8452 6.33174L12.8504 12.3392H14.7978C15.6446 12.3392 16.3366 11.6463 16.3366 10.7995L16.3313 6.15152C16.3313 4.56897 17.7223 3.3031 19.3486 3.5113C20.6906 3.68539 21.6616 4.89178 21.6616 6.24513V7.87667H25.1487V6.15152C25.1487 2.65923 22.2198 -0.166455 18.6881 0.0076354Z" fill="#148553"/>
<path fill-rule="evenodd" clip-rule="evenodd" d="M19.311 29.9957C22.617 29.8304 25.154 26.9828 25.154 23.6708L25.1487 17.6633H23.2014C22.3493 17.6633 21.6617 18.3562 21.6617 19.2083V23.8518C21.6617 25.4344 20.2759 26.6994 18.6505 26.4938C17.3085 26.3241 16.3375 25.1116 16.3375 23.76V22.1284H12.8513V23.8518C12.8513 27.3494 15.775 30.1707 19.3119 29.9966L19.311 29.9957Z" fill="#148553"/>
</g>
<defs>
<filter id="filter0_d_21_1585" x="0" y="0" width="38" height="38.0042" filterUnits="userSpaceOnUse" color-interpolation-filters="sRGB">
<feFlood flood-opacity="0" result="BackgroundImageFix"/>
<feColorMatrix in="SourceAlpha" type="matrix" values="0 0 0 0 0 0 0 0 0 0 0 0 0 0 0 0 0 0 127 0" result="hardAlpha"/>
<feOffset dy="4"/>
<feGaussianBlur stdDeviation="2"/>
<feComposite in2="hardAlpha" operator="out"/>
<feColorMatrix type="matrix" values="0 0 0 0 0 0 0 0 0 0 0 0 0 0 0 0 0 0 0.25 0"/>
<feBlend mode="normal" in2="BackgroundImageFix" result="effect1_dropShadow_21_1585"/>
<feBlend mode="normal" in="SourceGraphic" in2="effect1_dropShadow_21_1585" result="shape"/>
</filter>
</defs>
</svg>
