<svg width="55" height="38" viewBox="0 0 55 38" fill="none" xmlns="http://www.w3.org/2000/svg">
<path d="M14.7188 5.42857H19.247V13.5714H9.56335L12.1754 7.13348C12.5879 6.10714 13.5932 5.42857 14.7188 5.42857ZM23.3713 13.5714V5.42857H30.3484C31.1818 5.42857 31.9723 5.80179 32.4965 6.44643L38.2706 13.5714H23.3713ZM45.3851 13.6562L36.7927 3.05357C35.2289 1.11964 32.8574 0 30.3484 0H14.7188C11.342 0 8.30886 2.02723 7.06296 5.11473L3.48852 13.9446C1.44352 14.742 0 16.7013 0 19V28.5C0 30.0013 1.22871 31.2143 2.74957 31.2143H5.61084C6.26387 35.0652 9.65787 38 13.7479 38C17.8378 38 21.2318 35.0652 21.8849 31.2143H33.1151C33.7682 35.0652 37.1622 38 41.2521 38C45.3421 38 48.7361 35.0652 49.3892 31.2143H52.2504C53.7713 31.2143 55 30.0013 55 28.5V24.4286C55 18.8982 50.8069 14.3348 45.3937 13.6562H45.3851ZM37.3512 28.5C37.5262 27.989 37.8024 27.5175 38.1636 27.1128C38.5248 26.7081 38.9639 26.3782 39.4553 26.1424C39.9467 25.9066 40.4807 25.7696 41.0262 25.7393C41.5718 25.7089 42.118 25.7859 42.6331 25.9657C43.1483 26.1455 43.6221 26.4246 44.027 26.7867C44.432 27.1488 44.7601 27.5868 44.9921 28.0751C45.2242 28.5634 45.3556 29.0924 45.3788 29.6313C45.4021 30.1702 45.3166 30.7083 45.1273 31.2143C44.9523 31.7252 44.6761 32.1968 44.3149 32.6015C43.9537 33.0062 43.5147 33.3361 43.0232 33.5718C42.5318 33.8076 41.9978 33.9447 41.4523 33.975C40.9067 34.0054 40.3605 33.9284 39.8454 33.7486C39.3302 33.5688 38.8564 33.2897 38.4515 32.9276C38.0465 32.5655 37.7185 32.1275 37.4864 31.6392C37.2543 31.1509 37.1229 30.6219 37.0997 30.083C37.0765 29.5441 37.162 29.006 37.3512 28.5ZM13.7479 25.7857C14.8417 25.7857 15.8907 26.2147 16.6642 26.9782C17.4377 27.7417 17.8722 28.7773 17.8722 29.8571C17.8722 30.937 17.4377 31.9725 16.6642 32.7361C15.8907 33.4996 14.8417 33.9286 13.7479 33.9286C12.654 33.9286 11.605 33.4996 10.8315 32.7361C10.058 31.9725 9.6235 30.937 9.6235 29.8571C9.6235 28.7773 10.058 27.7417 10.8315 26.9782C11.605 26.2147 12.654 25.7857 13.7479 25.7857Z" fill="#383838"/>
</svg>
