<svg width="80" height="38" viewBox="0 0 80 38" fill="none" xmlns="http://www.w3.org/2000/svg">
<path d="M9.96462 8.59386L8.04098 14.1235H29.6949L27.7712 8.59386C27.4396 7.64507 26.5478 7.00761 25.5454 7.00761H12.1904C11.1881 7.00761 10.2963 7.64507 9.96462 8.59386ZM2.91863 14.4793L5.51297 7.02984C6.50796 4.17607 9.18337 2.26367 12.1904 2.26367H25.5454C28.5525 2.26367 31.2279 4.17607 32.2229 7.02984L34.8172 14.4793C36.5271 15.1909 37.7359 16.8883 37.7359 18.8674V29.5413V33.0993C37.7359 34.4112 36.6819 35.4712 35.3774 35.4712H33.0189C31.7143 35.4712 30.6604 34.4112 30.6604 33.0993V29.5413H7.07547V33.0993C7.07547 34.4112 6.02152 35.4712 4.71698 35.4712H2.35849C1.05395 35.4712 0 34.4112 0 33.0993V29.5413V18.8674C0 16.8883 1.20873 15.1909 2.91863 14.4793ZM9.43396 21.2394C9.43396 20.6103 9.18548 20.007 8.74318 19.5622C8.30087 19.1173 7.70098 18.8674 7.07547 18.8674C6.44996 18.8674 5.85007 19.1173 5.40777 19.5622C4.96546 20.007 4.71698 20.6103 4.71698 21.2394C4.71698 21.8685 4.96546 22.4718 5.40777 22.9166C5.85007 23.3615 6.44996 23.6114 7.07547 23.6114C7.70098 23.6114 8.30087 23.3615 8.74318 22.9166C9.18548 22.4718 9.43396 21.8685 9.43396 21.2394ZM30.6604 23.6114C31.2859 23.6114 31.8858 23.3615 32.3281 22.9166C32.7704 22.4718 33.0189 21.8685 33.0189 21.2394C33.0189 20.6103 32.7704 20.007 32.3281 19.5622C31.8858 19.1173 31.2859 18.8674 30.6604 18.8674C30.0349 18.8674 29.435 19.1173 28.9927 19.5622C28.5504 20.007 28.3019 20.6103 28.3019 21.2394C28.3019 21.8685 28.5504 22.4718 28.9927 22.9166C29.435 23.3615 30.0349 23.6114 30.6604 23.6114Z" fill="#383838"/>
<path d="M64.0348 2.90276C64.0348 1.29717 62.7377 0 61.1321 0C59.5265 0 58.2293 1.29717 58.2293 2.90276V15.9652H45.1669C43.5613 15.9652 42.2642 17.2623 42.2642 18.8679C42.2642 20.4735 43.5613 21.7707 45.1669 21.7707H58.2293V34.8331C58.2293 36.4387 59.5265 37.7359 61.1321 37.7359C62.7377 37.7359 64.0348 36.4387 64.0348 34.8331V21.7707H77.0973C78.7028 21.7707 80 20.4735 80 18.8679C80 17.2623 78.7028 15.9652 77.0973 15.9652H64.0348V2.90276Z" fill="#383838"/>
</svg>
