<svg width="78" height="83" viewBox="0 0 78 83" fill="none" xmlns="http://www.w3.org/2000/svg">
<g filter="url(#filter0_d_21_701)">
<ellipse cx="39" cy="37.5" rx="35" ry="37.5" fill="#FCFCFC"/>
<path d="M53.1593 43.1456C55.2888 43.1441 57.0152 41.4152 57.0137 39.2857L57.0119 36.7143C57.0104 34.5848 55.2815 32.8584 53.152 32.8599L24.8663 32.88C22.7368 32.8815 21.0104 34.6104 21.0119 36.7399L21.0137 39.3113C21.0152 41.4407 22.7441 43.1672 24.8736 43.1657L53.1593 43.1456ZM37.7399 56.0137C39.8693 56.0122 41.5958 54.2833 41.5943 52.1538L41.5924 49.5824C41.5909 47.4529 39.862 45.7265 37.7326 45.728L24.8754 45.7371C22.746 45.7386 21.0195 47.4675 21.021 49.597L21.0228 52.1684C21.0244 54.2979 22.7533 56.0243 24.8827 56.0228L37.7399 56.0137ZM51.8617 26.4322L51.8599 23.8608C51.8584 21.7313 50.1295 20.0049 48 20.0064L24.8572 20.0228C22.7277 20.0243 21.0012 21.7533 21.0028 23.8827L21.0046 26.4541C21.0061 28.5836 22.735 30.3101 24.8645 30.3085L48.0073 30.2921C50.1368 30.2906 51.8632 28.5617 51.8617 26.4322Z" fill="#148553"/>
</g>
<defs>
<filter id="filter0_d_21_701" x="0" y="0" width="78" height="83" filterUnits="userSpaceOnUse" color-interpolation-filters="sRGB">
<feFlood flood-opacity="0" result="BackgroundImageFix"/>
<feColorMatrix in="SourceAlpha" type="matrix" values="0 0 0 0 0 0 0 0 0 0 0 0 0 0 0 0 0 0 127 0" result="hardAlpha"/>
<feOffset dy="4"/>
<feGaussianBlur stdDeviation="2"/>
<feComposite in2="hardAlpha" operator="out"/>
<feColorMatrix type="matrix" values="0 0 0 0 0 0 0 0 0 0 0 0 0 0 0 0 0 0 0.25 0"/>
<feBlend mode="normal" in2="BackgroundImageFix" result="effect1_dropShadow_21_701"/>
<feBlend mode="normal" in="SourceGraphic" in2="effect1_dropShadow_21_701" result="shape"/>
</filter>
</defs>
</svg>
