<?xml version="1.0" standalone="no"?>
<!DOCTYPE svg PUBLIC "-//W3C//DTD SVG 20010904//EN"
 "http://www.w3.org/TR/2001/REC-SVG-20010904/DTD/svg10.dtd">
<svg version="1.0" xmlns="http://www.w3.org/2000/svg"
 width="48.000000pt" height="48.000000pt" viewBox="0 0 48.000000 48.000000"
 preserveAspectRatio="xMidYMid meet">

<g transform="translate(0.000000,48.000000) scale(0.100000,-0.100000)"
fill="#000000" stroke="none">
<path d="M205 468 c-34 -20 -44 -41 -45 -95 0 -46 2 -53 20 -53 17 0 20 7 20
43 0 24 5 48 12 55 20 20 48 14 60 -13 13 -30 48 -34 48 -6 0 33 -11 51 -41
66 -33 18 -47 18 -74 3z"/>
<path d="M82 353 c-22 -9 -44 -63 -37 -94 9 -41 40 -59 102 -59 46 0 53 3 53
20 0 17 -7 20 -43 20 -24 0 -48 5 -55 12 -20 20 -14 48 13 60 32 14 34 48 3
47 -13 0 -29 -3 -36 -6z"/>
<path d="M280 340 c0 -16 7 -20 38 -20 21 0 46 -6 56 -13 23 -17 17 -49 -12
-62 -31 -14 -29 -45 3 -45 31 0 75 41 75 69 0 59 -41 91 -115 91 -38 0 -45 -3
-45 -20z"/>
<path d="M280 196 c0 -47 -17 -70 -47 -64 -10 2 -22 13 -28 26 -14 31 -45 29
-45 -3 0 -36 42 -75 80 -75 51 0 80 38 80 105 0 48 -2 55 -20 55 -17 0 -20 -7
-20 -44z"/>
</g>
</svg>
